<svg xmlns="http://www.w3.org/2000/svg" version="1.1" xmlns:xlink="http://www.w3.org/1999/xlink" xmlns:svgjs="http://svgjs.com/svgjs" width="1440" height="560" preserveAspectRatio="none" viewBox="0 0 1440 560"><g mask="url(&quot;#SvgjsMask1001&quot;)" fill="none"><rect width="1440" height="560" x="0" y="0" fill="rgba(14, 42, 71, 1)"></rect><path d="M1088.1324282097423-29.889309923807083L980.8172633642477 73.74374013405787 1191.7654782676073 77.4258549216876z" fill="rgba(28, 83, 142, 0.4)" class="triangle-float2"></path><path d="M224.68806085262685 239.3949445265108L51.84611565645707 208.74837412814696 101.80380746362846 353.8360460981104z" fill="rgba(28, 83, 142, 0.4)" class="triangle-float2"></path><path d="M473.8769102297236 115.85663911174562L400.45491331517485-34.68076321857687 249.91751098485238 38.74123369597184 323.3395078994011 189.27863602629435z" fill="rgba(28, 83, 142, 0.4)" class="triangle-float1"></path><path d="M352.04440346235583 145.9346393467344L334.4741268088887 46.28864879627274 234.82813625842704 63.85892544973987 252.39841291189418 163.50491600020152z" fill="rgba(28, 83, 142, 0.4)" class="triangle-float3"></path><path d="M1076.7962402927747 167.18585936715198L1068.2557032824327 287.6710160987805 1163.9502491383507 243.04791652250125z" fill="rgba(28, 83, 142, 0.4)" class="triangle-float3"></path><path d="M1372.9587344045103 358.2562418744682L1466.8738475660452 325.91867510772806 1371.4099408351676 201.2147887487958z" fill="rgba(28, 83, 142, 0.4)" class="triangle-float1"></path><path d="M186.682,592.565C238.913,591.57,288.501,564.116,312.201,517.562C334.119,474.508,317.757,425.198,293.011,383.705C269.029,343.494,233.491,308.075,186.682,307.102C138.435,306.099,97.908,338.148,72.407,379.117C45.079,423.02,28.193,476.914,52.601,522.505C78.111,570.154,132.644,593.594,186.682,592.565" fill="rgba(28, 83, 142, 0.4)" class="triangle-float2"></path><path d="M818.3602818989174 64.3410087909034L884.7630982828455 135.54931133854234 955.9714008304844 69.14649495461418 889.5685844465563-2.0618075930247386z" fill="rgba(28, 83, 142, 0.4)" class="triangle-float1"></path><path d="M840.932,499.229C874.443,497.952,896.741,467.276,911.239,437.037C923.589,411.278,921.86,382.65,909.071,357.105C894.497,327.994,873.458,297.986,840.932,296.604C806.735,295.151,778.437,320.85,761.966,350.854C746.162,379.643,745.261,413.78,760.691,442.772C777.159,473.715,805.905,500.563,840.932,499.229" fill="rgba(28, 83, 142, 0.4)" class="triangle-float3"></path><path d="M1344.463,373.186C1363.259,372.88,1377.582,358.926,1387.555,342.992C1398.375,325.705,1408.037,304.945,1398.434,286.953C1388.45,268.247,1365.667,262.398,1344.463,262.258C1322.956,262.116,1299.679,267.425,1289.245,286.232C1279.02,304.662,1287.575,326.642,1298.873,344.434C1309.196,360.689,1325.21,373.499,1344.463,373.186" fill="rgba(28, 83, 142, 0.4)" class="triangle-float3"></path></g><defs><mask id="SvgjsMask1001"><rect width="1440" height="560" fill="#ffffff"></rect></mask><style>
            @keyframes float1 {
                0%{transform: translate(0, 0)}
                50%{transform: translate(-10px, 0)}
                100%{transform: translate(0, 0)}
            }

            .triangle-float1 {
                animation: float1 5s infinite;
            }

            @keyframes float2 {
                0%{transform: translate(0, 0)}
                50%{transform: translate(-5px, -5px)}
                100%{transform: translate(0, 0)}
            }

            .triangle-float2 {
                animation: float2 4s infinite;
            }

            @keyframes float3 {
                0%{transform: translate(0, 0)}
                50%{transform: translate(0, -10px)}
                100%{transform: translate(0, 0)}
            }

            .triangle-float3 {
                animation: float3 6s infinite;
            }
        </style></defs></svg>